<svg width="24" height="24" viewBox="0 0 24 24" fill="none" xmlns="http://www.w3.org/2000/svg">
    <path d="M20 10.999H22C22 5.869 18.127 2 12.99 2V4C17.052 4 20 6.943 20 10.999Z" fill="#6B0C10"/>
    <path d="M13 8.00024C15.103 8.00024 16 8.89724 16 11.0002H18C18 7.77524 16.225 6.00024 13 6.00024V8.00024Z" fill="#6B0C10"/>
    <path d="M16.422 13.443C16.2299 13.2683 15.9774 13.1752 15.7178 13.1832C15.4583 13.1912 15.212 13.2998 15.031 13.486L12.638 15.947C12.062 15.837 10.904 15.476 9.71198 14.287C8.51998 13.094 8.15898 11.933 8.05198 11.361L10.511 8.96699C10.6974 8.78612 10.8061 8.53982 10.8141 8.2802C10.8222 8.02059 10.7289 7.768 10.554 7.57599L6.85898 3.51299C6.68394 3.32035 6.44453 3.2035 6.18918 3.18725C5.93382 3.17101 5.68179 3.25665 5.48498 3.42599L3.29798 5.28699C3.12502 5.46051 3.0222 5.69145 3.00798 5.93599C2.99298 6.18599 2.70698 12.108 7.29898 16.702C11.305 20.707 16.323 21 17.705 21C17.907 21 18.031 20.994 18.064 20.992C18.3085 20.9783 18.5394 20.8747 18.712 20.701L20.572 18.514C20.7414 18.3174 20.8273 18.0654 20.8113 17.81C20.7952 17.5546 20.6785 17.3151 20.486 17.14L16.422 13.443Z" fill="#6B0C10"/>
</svg>
